<svg width="31" height="31" viewBox="0 0 31 31" fill="none" xmlns="http://www.w3.org/2000/svg">
<path fill-rule="evenodd" clip-rule="evenodd" d="M29.8058 15.5527C29.8058 14.4744 29.7091 13.4375 29.5293 12.4422H15.2071V18.3245H23.3912C23.0387 20.2254 21.9673 21.836 20.3567 22.9143V26.7299H25.2714C28.1469 24.0825 29.8058 20.1839 29.8058 15.5527Z" fill="#4285F4"/>
<path fill-rule="evenodd" clip-rule="evenodd" d="M15.2071 30.4142C19.313 30.4142 22.7553 29.0524 25.2714 26.7299L20.3567 22.9143C18.995 23.8267 17.2531 24.3659 15.2071 24.3659C11.2463 24.3659 7.89386 21.6908 6.69803 18.0964H1.61749V22.0364C4.11975 27.0064 9.2625 30.4142 15.2071 30.4142Z" fill="#34A853"/>
<path fill-rule="evenodd" clip-rule="evenodd" d="M6.69802 18.0964C6.39388 17.184 6.22107 16.2094 6.22107 15.2071C6.22107 14.2048 6.39388 13.2302 6.69802 12.3177V8.37772H1.61748C0.587545 10.4307 0 12.7532 0 15.2071C0 17.6609 0.587545 19.9835 1.61748 22.0364L6.69802 18.0964Z" fill="#FBBC05"/>
<path fill-rule="evenodd" clip-rule="evenodd" d="M15.2071 6.04826C17.4397 6.04826 19.4443 6.81553 21.0203 8.32241L25.382 3.96075C22.7484 1.50688 19.3061 0 15.2071 0C9.2625 0 4.11975 3.40776 1.61749 8.37771L6.69803 12.3177C7.89386 8.72332 11.2463 6.04826 15.2071 6.04826Z" fill="#EA4335"/>
</svg>
