<svg width="12" height="20" viewBox="0 0 12 20" fill="none" xmlns="http://www.w3.org/2000/svg">
<path fill-rule="evenodd" clip-rule="evenodd" d="M0.351432 7.24768C0.12641 7.02259 0 6.71734 0 6.39907C0 6.08079 0.12641 5.77554 0.351432 5.55046L5.15263 0.749258C5.37772 0.524237 5.68296 0.397827 6.00124 0.397827C6.31952 0.397827 6.62476 0.524237 6.84985 0.749258L11.651 5.55046C11.8697 5.77683 11.9907 6.08003 11.9879 6.39475C11.9852 6.70946 11.859 7.01051 11.6364 7.23306C11.4139 7.4556 11.1128 7.58184 10.7981 7.58457C10.4834 7.58731 10.1802 7.46632 9.95383 7.24768L7.20154 4.49539V18.4021C7.20154 18.7204 7.07508 19.0257 6.84998 19.2508C6.62488 19.4759 6.31958 19.6024 6.00124 19.6024C5.6829 19.6024 5.3776 19.4759 5.1525 19.2508C4.9274 19.0257 4.80094 18.7204 4.80094 18.4021V4.49539L2.04865 7.24768C1.82356 7.4727 1.51832 7.59911 1.20004 7.59911C0.881766 7.59911 0.576521 7.4727 0.351432 7.24768Z" fill="url(#paint0_linear_2_157)"/>
<defs>
<linearGradient id="paint0_linear_2_157" x1="-0.452377" y1="-1.13854" x2="20.7068" y2="4.96028" gradientUnits="userSpaceOnUse">
<stop stop-color="#FFA925"/>
<stop offset="1" stop-color="#FF7841"/>
</linearGradient>
</defs>
</svg>
