<svg width="10" height="18" viewBox="0 0 10 18" fill="none" xmlns="http://www.w3.org/2000/svg">
<path fill-rule="evenodd" clip-rule="evenodd" d="M9.51202 1.15843C9.82449 1.471 10 1.89488 10 2.33685C10 2.77882 9.82449 3.2027 9.51202 3.51527L4.02326 9.00403L9.51202 14.4928C9.81563 14.8072 9.98364 15.2282 9.97984 15.6652C9.97604 16.1022 9.80075 16.5203 9.49171 16.8293C9.18267 17.1384 8.76462 17.3137 8.32759 17.3175C7.89056 17.3213 7.46953 17.1533 7.15517 16.8496L0.487985 10.1825C0.175509 9.86989 -3.05176e-05 9.44601 -3.05176e-05 9.00403C-3.05176e-05 8.56206 0.175509 8.13818 0.487985 7.82561L7.15517 1.15843C7.46774 0.84595 7.89162 0.67041 8.33359 0.67041C8.77557 0.67041 9.19944 0.84595 9.51202 1.15843Z" fill="#A3A3A3"/>
</svg>
